<svg xmlns="http://www.w3.org/2000/svg" xmlns:xlink="http://www.w3.org/1999/xlink" width="300" zoomAndPan="magnify" viewBox="0 0 224.87999 30.000001" height="40" preserveAspectRatio="xMidYMid meet" version="1.0"><defs><g/></defs><g fill="#38b6ff" fill-opacity="1"><g transform="translate(21.390599, 22.218295)"><g><path d="M 7.9375 -19.8125 C 8.644531 -19.8125 9.203125 -19.457031 9.609375 -18.75 C 9.722656 -18.4375 9.78125 -18.175781 9.78125 -17.96875 C 9.78125 -17.351562 9.484375 -16.8125 8.890625 -16.34375 C 7.441406 -14.90625 6.71875 -13.144531 6.71875 -11.0625 C 6.71875 -8.4375 7.859375 -6.34375 10.140625 -4.78125 C 11.335938 -4.039062 12.664062 -3.671875 14.125 -3.671875 C 16.320312 -3.671875 18.179688 -4.503906 19.703125 -6.171875 L 19.703125 -10.921875 C 19.703125 -11.835938 20.15625 -12.460938 21.0625 -12.796875 C 21.257812 -12.835938 21.425781 -12.859375 21.5625 -12.859375 C 22.3125 -12.859375 22.878906 -12.484375 23.265625 -11.734375 C 23.359375 -11.472656 23.40625 -11.21875 23.40625 -10.96875 L 23.40625 -5 C 23.300781 -4.71875 22.820312 -4.125 21.96875 -3.21875 C 21.09375 -2.414062 20.34375 -1.835938 19.71875 -1.484375 C 19.03125 -1.078125 18.363281 -0.769531 17.71875 -0.5625 C 16.53125 -0.1875 15.613281 0 14.96875 0 L 13.234375 0 C 12.429688 0 11.382812 -0.226562 10.09375 -0.6875 C 9.425781 -0.945312 8.734375 -1.3125 8.015625 -1.78125 C 4.671875 -4.207031 3 -7.304688 3 -11.078125 C 3 -14.160156 4.109375 -16.789062 6.328125 -18.96875 C 6.796875 -19.53125 7.332031 -19.8125 7.9375 -19.8125 Z M 15.765625 -12.921875 C 16.492188 -12.921875 17.054688 -12.5625 17.453125 -11.84375 C 17.554688 -11.59375 17.609375 -11.351562 17.609375 -11.125 L 17.609375 -11.015625 C 17.609375 -10.398438 17.304688 -9.890625 16.703125 -9.484375 C 16.410156 -9.304688 16.09375 -9.21875 15.75 -9.21875 C 15.03125 -9.21875 14.472656 -9.582031 14.078125 -10.3125 C 13.972656 -10.5625 13.921875 -10.796875 13.921875 -11.015625 L 13.921875 -11.125 C 13.921875 -11.75 14.226562 -12.269531 14.84375 -12.6875 C 15.132812 -12.84375 15.441406 -12.921875 15.765625 -12.921875 Z M 15.765625 -12.921875 "/></g></g></g><g fill="#f4f6fc" fill-opacity="1"><g transform="translate(47.791808, 22.218295)"><g><path d="M 1.875 -4.90625 C 1.550781 -4.90625 1.390625 -5.019531 1.390625 -5.25 L 1.390625 -6.25 C 1.390625 -6.476562 1.554688 -6.59375 1.890625 -6.59375 L 6.15625 -6.59375 C 6.488281 -6.59375 6.65625 -6.476562 6.65625 -6.25 L 6.65625 -5.25 C 6.65625 -5.019531 6.492188 -4.90625 6.171875 -4.90625 Z M 1.875 -4.90625 "/></g></g></g><g fill="#f4f6fc" fill-opacity="1"><g transform="translate(55.835306, 22.218295)"><g><path d="M 17.078125 -20.53125 C 17.359375 -20.53125 17.640625 -20.445312 17.921875 -20.28125 C 18.472656 -19.894531 18.75 -19.40625 18.75 -18.8125 C 18.75 -18.550781 18.664062 -18.253906 18.5 -17.921875 C 18.101562 -17.367188 17.632812 -17.09375 17.09375 -17.09375 L 11.90625 -17.09375 L 11.90625 -1.828125 C 11.90625 -1.265625 11.742188 -0.816406 11.421875 -0.484375 C 11.066406 -0.179688 10.75 -0.0195312 10.46875 0 L 9.890625 0 C 9.796875 0 9.640625 -0.0390625 9.421875 -0.125 C 8.773438 -0.507812 8.453125 -1.019531 8.453125 -1.65625 L 8.453125 -18.859375 C 8.453125 -19.097656 8.519531 -19.359375 8.65625 -19.640625 C 9.039062 -20.234375 9.523438 -20.53125 10.109375 -20.53125 Z M 3.390625 -20.53125 C 3.640625 -20.53125 3.898438 -20.457031 4.171875 -20.3125 C 4.765625 -19.9375 5.0625 -19.441406 5.0625 -18.828125 C 5.0625 -18.546875 4.988281 -18.265625 4.84375 -17.984375 C 4.46875 -17.390625 3.988281 -17.09375 3.40625 -17.09375 L 3.265625 -17.09375 C 3.046875 -17.09375 2.796875 -17.160156 2.515625 -17.296875 C 1.910156 -17.679688 1.609375 -18.179688 1.609375 -18.796875 C 1.609375 -19.109375 1.6875 -19.40625 1.84375 -19.6875 C 2.238281 -20.25 2.707031 -20.53125 3.25 -20.53125 Z M 3.390625 -20.53125 "/></g></g></g><g fill="#f4f6fc" fill-opacity="1"><g transform="translate(76.244182, 22.218295)"><g><path d="M 11.6875 -20.53125 L 11.859375 -20.53125 C 12.554688 -20.53125 13.160156 -20.101562 13.671875 -19.25 C 14.535156 -17.976562 14.96875 -16.585938 14.96875 -15.078125 L 14.96875 -15.03125 C 14.96875 -13.1875 14.332031 -11.523438 13.0625 -10.046875 C 12.425781 -9.410156 11.988281 -9.023438 11.75 -8.890625 C 11.375 -8.628906 11.007812 -8.421875 10.65625 -8.265625 L 10.65625 -8.234375 C 13.113281 -5.085938 14.453125 -3.359375 14.671875 -3.046875 C 14.847656 -2.710938 14.9375 -2.40625 14.9375 -2.125 L 14.9375 -1.921875 C 14.9375 -1.253906 14.59375 -0.691406 13.90625 -0.234375 C 13.59375 -0.078125 13.363281 0 13.21875 0 L 12.53125 0 C 12.175781 -0.03125 11.796875 -0.226562 11.390625 -0.59375 C 7.753906 -5.257812 5.898438 -7.648438 5.828125 -7.765625 C 5.679688 -8.097656 5.609375 -8.425781 5.609375 -8.75 L 5.609375 -8.921875 C 5.609375 -9.703125 5.960938 -10.382812 6.671875 -10.96875 C 7.140625 -11.28125 7.578125 -11.4375 7.984375 -11.4375 C 8.347656 -11.507812 8.664062 -11.597656 8.9375 -11.703125 C 9.78125 -12.117188 10.398438 -12.742188 10.796875 -13.578125 C 10.992188 -14.085938 11.09375 -14.535156 11.09375 -14.921875 L 11.09375 -14.96875 C 11.09375 -15 11.097656 -15.023438 11.109375 -15.046875 L 11.09375 -15.125 L 11.09375 -15.1875 C 11.09375 -15.863281 10.863281 -16.535156 10.40625 -17.203125 C 10.40625 -17.234375 10.40625 -17.25 10.40625 -17.25 C 10.03125 -17.625 9.84375 -18.070312 9.84375 -18.59375 L 9.84375 -18.640625 C 9.84375 -19.304688 10.148438 -19.847656 10.765625 -20.265625 C 11.078125 -20.441406 11.382812 -20.53125 11.6875 -20.53125 Z M 11.6875 -20.53125 "/></g></g></g><g fill="#f4f6fc" fill-opacity="1"><g transform="translate(96.653058, 22.218295)"><g><path d="M 11.484375 -20.359375 L 11.34375 -20.359375 C 10.71875 -20.359375 10.195312 -20.046875 9.78125 -19.421875 C 6.738281 -13.359375 5.195312 -10.265625 5.15625 -10.140625 C 5.039062 -9.742188 4.984375 -9.503906 4.984375 -9.421875 C 4.984375 -8.703125 5.332031 -8.140625 6.03125 -7.734375 C 6.320312 -7.585938 6.613281 -7.515625 6.90625 -7.515625 C 7.53125 -7.515625 8.054688 -7.800781 8.484375 -8.375 C 8.523438 -8.445312 9.375 -10.144531 11.03125 -13.46875 C 11.144531 -13.570312 11.269531 -13.625 11.40625 -13.625 C 11.664062 -13.625 11.875 -13.398438 12.03125 -12.953125 L 18.1875 -0.796875 C 18.425781 -0.429688 18.773438 -0.175781 19.234375 -0.03125 C 19.296875 -0.0078125 19.351562 0 19.40625 0 L 20.046875 0 C 20.328125 0 20.660156 -0.160156 21.046875 -0.484375 C 21.421875 -0.867188 21.609375 -1.320312 21.609375 -1.84375 C 21.609375 -2.207031 21.335938 -2.890625 20.796875 -3.890625 C 20.796875 -3.910156 18.675781 -8.148438 14.4375 -16.609375 C 13.507812 -18.484375 13.007812 -19.472656 12.9375 -19.578125 C 12.507812 -20.097656 12.023438 -20.359375 11.484375 -20.359375 Z M 3.140625 -3.65625 L 2.984375 -3.65625 C 2.378906 -3.65625 1.875 -3.351562 1.46875 -2.75 C 1.289062 -2.414062 1.203125 -2.109375 1.203125 -1.828125 C 1.203125 -1.128906 1.535156 -0.578125 2.203125 -0.171875 C 2.441406 -0.0546875 2.625 0 2.75 0 L 3.375 0 C 3.664062 0 4.007812 -0.175781 4.40625 -0.53125 C 4.75 -0.914062 4.921875 -1.34375 4.921875 -1.8125 C 4.921875 -2.40625 4.671875 -2.90625 4.171875 -3.3125 C 3.828125 -3.539062 3.484375 -3.65625 3.140625 -3.65625 Z M 3.140625 -3.65625 "/></g></g></g><g fill="#f4f6fc" fill-opacity="1"><g transform="translate(119.462979, 22.218295)"><g><path d="M 11.578125 -20.53125 L 11.671875 -20.53125 C 12.242188 -20.53125 12.726562 -20.269531 13.125 -19.75 C 13.332031 -19.4375 13.4375 -19.085938 13.4375 -18.703125 C 13.4375 -18.023438 13.109375 -17.492188 12.453125 -17.109375 C 12.148438 -16.972656 11.878906 -16.90625 11.640625 -16.90625 C 10.921875 -16.90625 10.363281 -17.265625 9.96875 -17.984375 C 9.863281 -18.253906 9.8125 -18.503906 9.8125 -18.734375 C 9.8125 -19.410156 10.132812 -19.941406 10.78125 -20.328125 C 11.0625 -20.460938 11.328125 -20.53125 11.578125 -20.53125 Z M 7.359375 -18.734375 C 7.984375 -18.734375 8.476562 -18.421875 8.84375 -17.796875 C 8.957031 -17.535156 9.015625 -17.289062 9.015625 -17.0625 C 9.015625 -16.425781 8.695312 -15.929688 8.0625 -15.578125 C 6.851562 -14.710938 6.019531 -13.585938 5.5625 -12.203125 C 5.3125 -11.390625 5.1875 -10.632812 5.1875 -9.9375 C 5.1875 -8.28125 5.816406 -6.757812 7.078125 -5.375 C 7.660156 -4.8125 8.128906 -4.445312 8.484375 -4.28125 C 9.585938 -3.65625 10.75 -3.34375 11.96875 -3.34375 C 13.457031 -3.34375 14.863281 -3.863281 16.1875 -4.90625 C 16.476562 -5.070312 16.769531 -5.15625 17.0625 -5.15625 C 17.71875 -5.15625 18.226562 -4.820312 18.59375 -4.15625 C 18.6875 -3.925781 18.734375 -3.695312 18.734375 -3.46875 C 18.734375 -2.800781 18.347656 -2.242188 17.578125 -1.796875 C 17.046875 -1.429688 16.554688 -1.144531 16.109375 -0.9375 C 15.597656 -0.695312 15.117188 -0.503906 14.671875 -0.359375 C 13.785156 -0.117188 13.128906 0 12.703125 0 L 11.1875 0 C 10.570312 0 9.65625 -0.191406 8.4375 -0.578125 C 6.070312 -1.421875 4.238281 -3.082031 2.9375 -5.5625 C 2.207031 -7.007812 1.84375 -8.472656 1.84375 -9.953125 C 1.84375 -11.671875 2.269531 -13.347656 3.125 -14.984375 C 3.40625 -15.492188 3.828125 -16.066406 4.390625 -16.703125 C 4.941406 -17.285156 5.367188 -17.675781 5.671875 -17.875 C 6.347656 -18.425781 6.863281 -18.703125 7.21875 -18.703125 Z M 7.359375 -18.734375 "/></g></g></g><g fill="#f4f6fc" fill-opacity="1"><g transform="translate(139.871855, 22.218295)"><g><path d="M 18.671875 -20.53125 C 19.285156 -20.53125 19.800781 -20.25 20.21875 -19.6875 C 20.414062 -19.351562 20.515625 -19.023438 20.515625 -18.703125 L 20.515625 -18.640625 C 20.515625 -17.941406 20.15625 -17.363281 19.4375 -16.90625 L 10.96875 -10.25 L 10.96875 -10.21875 C 11.125 -10.113281 12.78125 -8.820312 15.9375 -6.34375 L 19.96875 -3.1875 C 20.332031 -2.789062 20.515625 -2.34375 20.515625 -1.84375 L 20.515625 -1.828125 C 20.515625 -1.085938 20.148438 -0.519531 19.421875 -0.125 C 19.210938 -0.0390625 19.0625 0 18.96875 0 L 18.34375 0 C 18.007812 0 17.515625 -0.285156 16.859375 -0.859375 C 10.296875 -6.003906 7.007812 -8.578125 7 -8.578125 C 6.59375 -8.765625 6.300781 -9.097656 6.125 -9.578125 C 6.039062 -9.773438 6 -9.96875 6 -10.15625 L 6 -10.34375 C 6 -10.957031 6.300781 -11.46875 6.90625 -11.875 C 7.050781 -11.945312 7.507812 -12.296875 8.28125 -12.921875 C 8.632812 -13.191406 11.675781 -15.578125 17.40625 -20.078125 C 17.789062 -20.378906 18.210938 -20.53125 18.671875 -20.53125 Z M 18.671875 -20.53125 "/></g></g></g><g fill="#f4f6fc" fill-opacity="1"><g transform="translate(162.681775, 22.218295)"><g><path d="M 5.203125 -20.53125 L 15.234375 -20.53125 L 15.28125 -20.515625 L 15.328125 -20.515625 C 15.921875 -20.515625 16.40625 -20.207031 16.78125 -19.59375 C 16.914062 -19.332031 16.984375 -19.066406 16.984375 -18.796875 C 16.984375 -18.128906 16.65625 -17.613281 16 -17.25 C 15.769531 -17.144531 15.546875 -17.09375 15.328125 -17.09375 L 5.09375 -17.09375 C 4.613281 -17.09375 4.1875 -17.316406 3.8125 -17.765625 C 3.570312 -18.078125 3.453125 -18.40625 3.453125 -18.75 L 3.453125 -18.890625 C 3.453125 -19.421875 3.71875 -19.875 4.25 -20.25 C 4.539062 -20.425781 4.828125 -20.515625 5.109375 -20.515625 L 5.15625 -20.515625 Z M 5.171875 -11.953125 L 10.34375 -11.921875 C 10.695312 -11.921875 11.066406 -11.742188 11.453125 -11.390625 C 11.765625 -11.035156 11.921875 -10.644531 11.921875 -10.21875 C 11.921875 -9.625 11.644531 -9.140625 11.09375 -8.765625 C 10.820312 -8.609375 10.554688 -8.53125 10.296875 -8.53125 L 5.0625 -8.53125 C 4.550781 -8.53125 4.109375 -8.785156 3.734375 -9.296875 C 3.546875 -9.585938 3.453125 -9.875 3.453125 -10.15625 L 3.453125 -10.296875 C 3.453125 -10.847656 3.738281 -11.316406 4.3125 -11.703125 C 4.601562 -11.847656 4.875 -11.921875 5.125 -11.921875 L 5.15625 -11.921875 C 5.164062 -11.921875 5.171875 -11.929688 5.171875 -11.953125 Z M 15.234375 -11.921875 L 15.3125 -11.921875 C 15.957031 -11.921875 16.46875 -11.585938 16.84375 -10.921875 C 16.9375 -10.679688 16.984375 -10.445312 16.984375 -10.21875 C 16.984375 -9.539062 16.648438 -9.023438 15.984375 -8.671875 C 15.742188 -8.578125 15.53125 -8.53125 15.34375 -8.53125 L 15.171875 -8.53125 C 14.628906 -8.53125 14.164062 -8.8125 13.78125 -9.375 C 13.632812 -9.664062 13.5625 -9.953125 13.5625 -10.234375 C 13.5625 -10.890625 13.890625 -11.398438 14.546875 -11.765625 C 14.796875 -11.867188 15.023438 -11.921875 15.234375 -11.921875 Z M 5.203125 -3.40625 L 15.234375 -3.40625 C 15.234375 -3.382812 15.359375 -3.363281 15.609375 -3.34375 C 16.023438 -3.238281 16.34375 -3.050781 16.5625 -2.78125 C 16.84375 -2.445312 16.984375 -2.066406 16.984375 -1.640625 C 16.984375 -0.992188 16.65625 -0.484375 16 -0.109375 C 15.800781 -0.0351562 15.664062 0 15.59375 0 L 4.84375 0 C 4.570312 0 4.238281 -0.1875 3.84375 -0.5625 C 3.582031 -0.90625 3.453125 -1.253906 3.453125 -1.609375 L 3.453125 -1.71875 C 3.453125 -2.3125 3.753906 -2.796875 4.359375 -3.171875 C 4.535156 -3.273438 4.804688 -3.347656 5.171875 -3.390625 C 5.171875 -3.398438 5.179688 -3.40625 5.203125 -3.40625 Z M 5.203125 -3.40625 "/></g></g></g><g fill="#f4f6fc" fill-opacity="1"><g transform="translate(183.090651, 22.218295)"><g><path d="M 11.6875 -20.53125 L 11.859375 -20.53125 C 12.554688 -20.53125 13.160156 -20.101562 13.671875 -19.25 C 14.535156 -17.976562 14.96875 -16.585938 14.96875 -15.078125 L 14.96875 -15.03125 C 14.96875 -13.1875 14.332031 -11.523438 13.0625 -10.046875 C 12.425781 -9.410156 11.988281 -9.023438 11.75 -8.890625 C 11.375 -8.628906 11.007812 -8.421875 10.65625 -8.265625 L 10.65625 -8.234375 C 13.113281 -5.085938 14.453125 -3.359375 14.671875 -3.046875 C 14.847656 -2.710938 14.9375 -2.40625 14.9375 -2.125 L 14.9375 -1.921875 C 14.9375 -1.253906 14.59375 -0.691406 13.90625 -0.234375 C 13.59375 -0.078125 13.363281 0 13.21875 0 L 12.53125 0 C 12.175781 -0.03125 11.796875 -0.226562 11.390625 -0.59375 C 7.753906 -5.257812 5.898438 -7.648438 5.828125 -7.765625 C 5.679688 -8.097656 5.609375 -8.425781 5.609375 -8.75 L 5.609375 -8.921875 C 5.609375 -9.703125 5.960938 -10.382812 6.671875 -10.96875 C 7.140625 -11.28125 7.578125 -11.4375 7.984375 -11.4375 C 8.347656 -11.507812 8.664062 -11.597656 8.9375 -11.703125 C 9.78125 -12.117188 10.398438 -12.742188 10.796875 -13.578125 C 10.992188 -14.085938 11.09375 -14.535156 11.09375 -14.921875 L 11.09375 -14.96875 C 11.09375 -15 11.097656 -15.023438 11.109375 -15.046875 L 11.09375 -15.125 L 11.09375 -15.1875 C 11.09375 -15.863281 10.863281 -16.535156 10.40625 -17.203125 C 10.40625 -17.234375 10.40625 -17.25 10.40625 -17.25 C 10.03125 -17.625 9.84375 -18.070312 9.84375 -18.59375 L 9.84375 -18.640625 C 9.84375 -19.304688 10.148438 -19.847656 10.765625 -20.265625 C 11.078125 -20.441406 11.382812 -20.53125 11.6875 -20.53125 Z M 11.6875 -20.53125 "/></g></g></g></svg>